<svg width="21" height="17" viewBox="0 0 21 17" fill="none" xmlns="http://www.w3.org/2000/svg">
<path fill-rule="evenodd" clip-rule="evenodd" d="M6.31918 16.2976C13.9019 16.2976 18.0493 10.0269 18.0493 4.58905C18.0493 4.41094 18.0493 4.23364 18.0372 4.05713C18.8441 3.4746 19.5405 2.75332 20.0941 1.92706C19.3416 2.25985 18.5435 2.4781 17.7262 2.57451C18.5868 2.06023 19.2309 1.25136 19.5387 0.298425C18.7294 0.777755 17.844 1.11556 16.9208 1.29727C15.6429 -0.0590774 13.6123 -0.391049 11.9677 0.487509C10.323 1.36607 9.47336 3.23666 9.89511 5.05036C6.58031 4.88449 3.49192 3.3217 1.39854 0.750915C0.304319 2.63119 0.863227 5.03661 2.67492 6.24416C2.01884 6.22476 1.37707 6.0481 0.803761 5.7291V5.78125C0.804298 7.7401 2.18764 9.42726 4.11124 9.81514C3.5043 9.98036 2.86749 10.0045 2.24973 9.88574C2.78982 11.5621 4.33756 12.7104 6.10136 12.7435C4.64151 13.8887 2.83813 14.5104 0.981394 14.5085C0.653381 14.5079 0.325688 14.4881 0 14.4491C1.88533 15.6568 4.07903 16.2974 6.31918 16.2944" fill="black"/>
</svg>
