<svg width="30" height="30" viewBox="0 0 30 30" fill="none" xmlns="http://www.w3.org/2000/svg">
<path fill-rule="evenodd" clip-rule="evenodd" d="M29 0.5L30 1V14C30 19.5519 27.1103 22.6957 24.0048 24.0999L24.0094 24.1L16.3884 28.4886C16.3297 28.5231 16.2707 28.5571 16.2115 28.5905L16.1251 28.6402L16.1269 28.6377C14.4829 29.5459 12.6847 30 11 30C6 30 0 26 0 18V6L2 7V18C2 26 8 28 11 28C12.8587 28 15.869 27.2323 17.8904 24.7455C14.1817 23.8726 10 20.6787 10 14V2.2L2 7L0 6L10 0L11 0.5L12 1V14C12 20.94 16.5153 22.6121 19.0175 22.9334C19.6258 21.6216 20 19.9979 20 18V5L22 6V18C22 19.8526 21.6782 21.4908 21.1216 22.9144C23.6482 22.5492 28 20.8131 28 14V2.25L22 6L20 5L28 0L29 0.5Z" fill="#02B3E4"/>
</svg>
