<svg width="118" height="80" viewBox="0 0 118 80" fill="none" xmlns="http://www.w3.org/2000/svg">
<path fill-rule="evenodd" clip-rule="evenodd" d="M29.0725 38.2445H15.3177V42.2922H25.0727C24.5907 47.97 19.8295 50.3922 15.3355 50.3922C9.5858 50.3922 4.56746 45.9034 4.56746 39.6122C4.56746 33.49 9.35091 28.7678 15.3478 28.7678C19.9754 28.7678 22.7016 31.6956 22.7016 31.6956L25.5592 28.7622C25.5592 28.7622 21.8912 24.71 15.2019 24.71C6.68367 24.71 0.0957031 31.8434 0.0957031 39.5478C0.0957031 47.0967 6.29293 54.4589 15.419 54.4589C23.4452 54.4589 29.323 49.0034 29.323 40.9367C29.323 39.2334 29.0781 38.2478 29.0781 38.2478L29.0725 38.2445Z" fill="#4285F4"/>
<path fill-rule="evenodd" clip-rule="evenodd" d="M40.3381 35.3112C34.6942 35.3112 30.651 39.6889 30.651 44.7934C30.651 49.9745 34.5739 54.4334 40.4049 54.4334C45.6838 54.4334 50.0086 50.43 50.0086 44.9056C50.0086 38.5723 44.9769 35.3112 40.3381 35.3112ZM40.3938 39.0667C43.1701 39.0667 45.7995 41.2923 45.7995 44.88C45.7995 48.3912 43.1813 50.68 40.3815 50.68C37.3058 50.68 34.8801 48.2356 34.8801 44.8523C34.8801 41.5412 37.2768 39.0667 40.3949 39.0667H40.3938Z" fill="#EA4335"/>
<path fill-rule="evenodd" clip-rule="evenodd" d="M61.4078 35.3112C55.7639 35.3112 51.7207 39.6889 51.7207 44.7934C51.7207 49.9745 55.6503 54.4334 61.4813 54.4334C66.7601 54.4334 71.0849 50.43 71.0849 44.9056C71.0849 38.5723 66.0532 35.3112 61.4156 35.3112H61.4078ZM61.4635 39.0667C64.2398 39.0667 66.8692 41.2923 66.8692 44.88C66.8692 48.3912 64.2443 50.68 61.4479 50.68C58.3688 50.68 55.9487 48.2356 55.9487 44.8523C55.9487 41.5412 58.3421 39.0667 61.459 39.0667H61.4635Z" fill="#FBBC05"/>
<path fill-rule="evenodd" clip-rule="evenodd" d="M82.0745 35.3223C76.8947 35.3223 72.8237 39.8223 72.8237 44.8745C72.8237 50.63 77.5437 54.4467 81.9854 54.4467C84.7317 54.4467 86.1933 53.3645 87.2698 52.1245V54.0078C87.2698 57.3078 85.2516 59.2823 82.2047 59.2823C79.2603 59.2823 77.7853 57.1112 77.271 55.8789L73.5674 57.4212C74.8809 60.1767 77.5259 63.0523 82.2348 63.0523C87.3856 63.0523 91.3108 59.8356 91.3108 53.0856V35.8967H87.2698V37.5189C86.0275 36.1889 84.3287 35.3234 82.0745 35.3234V35.3223ZM82.4496 39.0689C84.9878 39.0689 87.596 41.2212 87.596 44.8945C87.596 48.63 84.9944 50.6878 82.3929 50.6878C79.6321 50.6878 77.0606 48.4567 77.0606 44.9234C77.0606 41.2523 79.7301 39.0623 82.4485 39.0623L82.4496 39.0689Z" fill="#4285F4"/>
<path fill-rule="evenodd" clip-rule="evenodd" d="M109.276 35.2978C104.389 35.2978 100.287 39.1556 100.287 44.8467C100.287 50.8689 104.86 54.4411 109.744 54.4411C113.822 54.4411 116.323 52.2278 117.817 50.2445L114.487 48.0445C113.622 49.3778 112.177 50.6778 109.764 50.6778C107.056 50.6778 105.81 49.2056 105.039 47.78L117.96 42.46L117.29 40.9011C116.041 37.8545 113.13 35.3011 109.275 35.3011L109.276 35.2978ZM109.443 38.9756C111.204 38.9756 112.471 39.9045 113.009 41.0178L104.38 44.5956C104.008 41.8256 106.654 38.9756 109.445 38.9756H109.443Z" fill="#EA4335"/>
<path fill-rule="evenodd" clip-rule="evenodd" d="M94.1261 53.8733H98.3708V25.6911H94.1261V53.8733Z" fill="#34A853"/>
</svg>
