<svg width="19" height="18" viewBox="0 0 19 18" fill="none" xmlns="http://www.w3.org/2000/svg">
<path fill-rule="evenodd" clip-rule="evenodd" d="M15.3667 15.338H12.6923V11.1605C12.6923 10.1645 12.6753 8.883 11.3028 8.883C9.91071 8.883 9.69832 9.9685 9.69832 11.0895V15.338H7.02691V6.748H9.59062V7.9225H9.62769C9.98434 7.247 10.8569 6.535 12.1578 6.535C14.8663 6.535 15.3667 8.3135 15.3667 10.627V15.338ZM4.01137 5.5745C3.15229 5.5745 2.45952 4.881 2.45952 4.026C2.45952 3.1715 3.15229 2.478 4.01137 2.478C4.86694 2.478 5.56122 3.1715 5.56122 4.026C5.56122 4.881 4.86694 5.5745 4.01137 5.5745H4.01137ZM2.67191 15.338H5.34933V6.748H2.67191V15.338ZM16.6987 0H1.32994C0.596095 0 0 0.581 0 1.298V16.701C0 17.418 0.596095 18 1.32994 18H16.6987C17.434 18 18.0326 17.418 18.0326 16.701V1.298C18.0326 0.581 17.434 0 16.6987 0Z" fill="black"/>
</svg>
