<svg width="17" height="17" viewBox="0 0 17 17" fill="none" xmlns="http://www.w3.org/2000/svg">
<path fill-rule="evenodd" clip-rule="evenodd" d="M8.05987 1.44962C10.212 1.44962 10.4669 1.4578 11.3167 1.4965C12.1026 1.5323 12.5293 1.66336 12.8134 1.77351C13.1896 1.91945 13.4581 2.09381 13.7401 2.37532C14.0221 2.65683 14.1968 2.92486 14.343 3.30035C14.4534 3.58387 14.5847 4.00985 14.6205 4.7942C14.6593 5.64256 14.6675 5.89699 14.6675 8.04513C14.6675 10.1933 14.6593 10.4477 14.6206 11.296C14.5847 12.0804 14.4534 12.5064 14.343 12.7899C14.1968 13.1654 14.0222 13.4334 13.7401 13.7149C13.4581 13.9964 13.1896 14.1708 12.8134 14.3167C12.5294 14.4269 12.1026 14.5579 11.3168 14.5937C10.467 14.6325 10.2121 14.6406 8.05989 14.6406C5.90767 14.6406 5.65278 14.6325 4.80302 14.5937C4.01719 14.5579 3.59043 14.4269 3.30642 14.3167C2.93021 14.1708 2.66169 13.9964 2.37966 13.7149C2.09764 13.4334 1.92295 13.1654 1.77677 12.7899C1.66639 12.5064 1.53509 12.0804 1.49923 11.296C1.46045 10.4477 1.45226 10.1933 1.45226 8.04512C1.45226 5.89698 1.46045 5.64255 1.49923 4.79423C1.5351 4.00984 1.6664 3.58386 1.77678 3.30034C1.92296 2.92484 2.09764 2.65681 2.37967 2.37531C2.66169 2.0938 2.93022 1.91944 3.30643 1.77349C3.59044 1.66334 4.0172 1.53228 4.803 1.49648C5.65292 1.45777 5.90781 1.4496 8.0599 1.4496L8.05987 1.44962ZM8.0599 0C5.87095 0 5.59651 0.00926008 4.73684 0.0484121C3.87893 0.0875021 3.29306 0.223482 2.78036 0.422372C2.25035 0.627966 1.80087 0.903054 1.3528 1.3503C0.904722 1.79755 0.629127 2.24621 0.423152 2.77524C0.223892 3.287 0.087662 3.87179 0.048502 4.72813C0.00924997 5.58622 0 5.86019 0 8.04512C0 10.2301 0.00924602 10.504 0.04847 11.3621C0.08763 12.2184 0.22386 12.8032 0.423118 13.315C0.629093 13.844 0.904688 14.2927 1.35276 14.7399C1.80084 15.1872 2.25032 15.4623 2.78033 15.6678C3.29303 15.8667 3.8789 16.0027 4.73682 16.0418C5.5965 16.081 5.87094 16.0902 8.05989 16.0902C10.2488 16.0902 10.5233 16.081 11.383 16.0418C12.2409 16.0027 12.8267 15.8667 13.3394 15.6678C13.8695 15.4622 14.3189 15.1872 14.767 14.7399C15.2151 14.2927 15.4907 13.844 15.6966 13.315C15.8959 12.8032 16.0321 12.2184 16.0713 11.3621C16.1105 10.504 16.1198 10.23 16.1198 8.04512C16.1198 5.86019 16.1105 5.58622 16.0713 4.72816C16.0321 3.87182 15.8959 3.28703 15.6967 2.77527C15.4907 2.24623 15.2151 1.79758 14.767 1.35033C14.3189 0.903078 13.8695 0.627988 13.3395 0.422388C12.8268 0.223498 12.2409 0.0875178 11.383 0.0484278C10.5233 0.00928782 10.2488 2.7895e-05 8.05987 2.7895e-05" fill="black"/>
<path fill-rule="evenodd" clip-rule="evenodd" d="M8.06246 3.91634C5.77663 3.91634 3.92358 5.76598 3.92358 8.04761C3.92358 10.3292 5.77663 12.1789 8.06246 12.1789C10.3483 12.1789 12.2013 10.3292 12.2013 8.04761C12.2013 5.76598 10.3483 3.91634 8.06246 3.91634ZM8.06246 10.7293C6.57868 10.7293 5.37581 9.52866 5.37581 8.04761C5.37581 6.56656 6.57868 5.3659 8.06246 5.3659C9.54623 5.3659 10.7491 6.56656 10.7491 8.04761C10.7491 9.52866 9.54623 10.7293 8.06246 10.7293ZM13.332 3.75312C13.332 4.28631 12.899 4.71855 12.3649 4.71855C11.8307 4.71855 11.3976 4.28631 11.3976 3.75312C11.3976 3.21993 11.8307 2.78772 12.3649 2.78772C12.899 2.78772 13.332 3.21993 13.332 3.75311" fill="black"/>
</svg>
