<svg width="20" height="17" viewBox="0 0 20 17" fill="none" xmlns="http://www.w3.org/2000/svg">
<path fill-rule="evenodd" clip-rule="evenodd" d="M19.0959 3.13298C19.0921 3.13011 19.0893 3.12634 19.0848 3.12419L19.0784 3.12097L13.431 0.290401C13.3927 0.271393 13.3526 0.258303 13.312 0.247901C13.2611 0.234633 13.2092 0.226742 13.1569 0.226742C12.9407 0.226742 12.7253 0.335591 12.6087 0.525311L9.35734 5.8217L13.4376 12.4682L19.1131 3.22336C19.132 3.19269 19.1229 3.1545 19.0959 3.13298H19.0959ZM7.76756 4.53392V10.4977L13.2182 13.1483L7.76756 4.53392ZM13.7198 13.7033L18.2253 15.9161C18.8116 16.2041 19.2869 16.0026 19.2869 15.4659V4.81693L13.7198 13.7033ZM6.80405 2.9739L1.20204 0.22508C1.10084 0.175513 1.00455 0.151978 0.91752 0.151978C0.67206 0.151978 0.5 0.3383 0.5 0.650856V12.5202C0.5 12.8379 0.736922 13.2141 1.02653 13.3562L5.96047 15.7771C6.08711 15.8392 6.20756 15.8686 6.3164 15.8686C6.62309 15.8686 6.83802 15.6358 6.83802 15.2449V3.02793C6.83802 3.00511 6.82494 2.98407 6.80405 2.9739" fill="black"/>
</svg>
