<svg width="31" height="34" viewBox="0 0 31 34" fill="none" xmlns="http://www.w3.org/2000/svg">
<path d="M30.1936 28.628L23.0016 20.672L23.3116 20.196C24.8616 17.748 25.6056 14.892 25.3576 11.968C25.1096 8.5 23.4976 5.304 20.9556 3.06C18.5996 1.088 15.6856 0 12.6476 0C9.5476 0 6.6336 1.156 4.3396 3.128C3.9056 3.604 3.4096 4.08 3.0376 4.556C-1.4884 10.064 -0.868401 18.36 4.4636 22.984C6.7576 24.956 9.6716 26.044 12.6476 26.044C14.4456 26.044 16.1196 25.704 17.7316 24.956L18.2276 24.752L18.5996 25.16L18.7236 25.296L25.6676 32.912C26.3496 33.66 27.2796 34 28.2096 33.932C28.8916 33.864 29.5736 33.592 30.0696 33.116C31.2476 31.96 31.3096 29.92 30.1936 28.628ZM19.3436 18.904C19.0336 19.244 18.7236 19.584 18.4136 19.856C16.8636 21.284 14.8176 22.032 12.7096 22.032C10.6016 22.032 8.6176 21.284 7.0056 19.924C3.3476 16.728 2.8516 11.016 6.0136 7.208C6.3236 6.868 6.6336 6.528 6.9436 6.256C8.4936 4.828 10.5396 4.08 12.6476 4.08C14.7556 4.08 16.7396 4.828 18.3516 6.188C20.1496 7.752 21.2036 9.928 21.3896 12.308C21.5756 14.688 20.8936 17.068 19.3436 18.904Z" fill="#01B3E3"/>
</svg>
